# Blender v2.74 (sub 0) OBJ File: 'mcnodes_chest.blend'
# www.blender.org
mtllib default_chest.mtl
o Chest
v 0.429587 -0.500587 0.455401
v 0.429587 0.358587 0.455401
v -0.429587 -0.500587 0.455401
v -0.429587 0.358587 0.455401
v 0.429587 -0.500587 -0.403773
v 0.429587 0.358587 -0.403773
v -0.429587 -0.500587 -0.403773
v -0.429587 0.358587 -0.403773
v 0.429587 0.088644 0.455401
v -0.429587 0.088644 0.455401
v -0.429587 0.088644 -0.403773
v 0.429587 0.088644 -0.403773
v 0.054702 -0.017228 -0.403842
v 0.054702 0.198663 -0.403842
v -0.054702 -0.017228 -0.403842
v -0.054702 0.198663 -0.403842
v 0.054702 -0.017228 -0.455401
v 0.054702 0.198663 -0.455401
v -0.054702 -0.017228 -0.455401
v -0.054702 0.198663 -0.455401
vt 0.656221 0.484414
vt 0.437466 0.484414
vt 0.437466 0.328177
vt 0.656221 0.328177
vt 0.000015 0.484374
vt 0.218749 0.484374
vt 0.218749 0.328221
vt 0.000015 0.328221
vt 0.218825 0.484376
vt 0.218825 0.328204
vt 0.874916 0.484361
vt 0.656361 0.484361
vt 0.656361 0.328196
vt 0.874916 0.328196
vt 0.437618 0.484420
vt 0.437618 0.703143
vt 0.656223 0.703143
vt 0.437583 1.000009
vt 0.218998 1.000009
vt 0.218848 0.781307
vt 0.437433 0.781307
vt 0.875034 0.781209
vt 0.656262 0.781209
vt 0.656262 0.703266
vt 0.875034 0.703266
vt 0.000015 0.781229
vt 0.218749 0.781229
vt 0.218749 0.703264
vt 0.000015 0.703264
vt 0.656221 0.781292
vt 0.437984 0.781292
vt 0.437984 0.703261
vt 0.656221 0.703261
vt 0.093709 0.999995
vt 0.062525 0.999995
vt 0.062525 0.937615
vt 0.093709 0.937615
vt 0.046865 1.000072
vt 0.062568 1.000072
vt 0.062568 0.937564
vt 0.046865 0.937564
vt 0.046890 0.999970
vt 0.031269 0.999970
vt 0.031269 0.937548
vt 0.046890 0.937548
vt 0.062515 0.921897
vt 0.031265 0.921897
vt 0.062515 0.937528
vt 0.031243 0.937542
vt 0.000021 0.937542
vt 0.000021 0.921918
vt 0.031243 0.921918
vt 0.437503 0.781322
vt 0.437503 0.703210
vt 0.218797 0.703210
vt 0.000024 1.000025
vt 0.031224 1.000025
vn 0.000000 0.000000 1.000000
vn -1.000000 -0.000000 0.000000
vn -0.000000 0.000000 -1.000000
vn 1.000000 0.000000 -0.000000
vn 0.000000 -1.000000 -0.000000
vn 0.000000 1.000000 -0.000000
usemtl None
s off
f 9/1/1 10/2/1 3/3/1 1/4/1
f 10/5/2 11/6/2 7/7/2 3/8/2
f 11/9/3 12/2/3 5/3/3 7/10/3
f 12/11/4 9/12/4 1/13/4 5/14/4
f 1/1/5 3/15/5 7/16/5 5/17/5
f 6/18/6 8/19/6 4/20/6 2/21/6
f 6/22/4 2/23/4 9/24/4 12/25/4
f 4/26/2 8/27/2 11/28/2 10/29/2
f 2/30/1 4/31/1 10/32/1 9/33/1
f 14/34/1 16/35/1 15/36/1 13/37/1
f 16/38/2 20/39/2 19/40/2 15/41/2
f 18/42/4 14/43/4 13/44/4 17/45/4
f 13/46/5 15/47/5 19/44/5 17/48/5
f 18/49/6 20/50/6 16/51/6 14/52/6
f 8/20/3 6/53/3 12/54/3 11/55/3
f 19/50/3 20/56/3 18/57/3 17/49/3
